<svg width="24" height="24" viewBox="0 0 24 24" fill="none" xmlns="http://www.w3.org/2000/svg">
<g clip-path="url(#clip0_19_2)">
<rect width="24" height="24" rx="4" fill="white"/>
<path d="M4 14C4 15.5823 4.46919 17.129 5.34824 18.4446C6.22729 19.7602 7.47672 20.7855 8.93853 21.391C10.4003 21.9965 12.0089 22.155 13.5607 21.8463C15.1126 21.5376 16.538 20.7757 17.6569 19.6569C18.7757 18.538 19.5376 17.1126 19.8463 15.5607C20.155 14.0089 19.9965 12.4003 19.391 10.9385C18.7855 9.47672 17.7602 8.22729 16.4446 7.34824C15.129 6.46919 13.5823 6 12 6C9.87827 6 7.84344 6.84285 6.34315 8.34315C4.84285 9.84344 4 11.8783 4 14ZM12 8C13.1867 8 14.3467 8.35189 15.3334 9.01118C16.3201 9.67047 17.0892 10.6075 17.5433 11.7039C17.9974 12.8003 18.1162 14.0067 17.8847 15.1705C17.6532 16.3344 17.0818 17.4035 16.2426 18.2426C15.4035 19.0818 14.3344 19.6532 13.1705 19.8847C12.0067 20.1162 10.8003 19.9974 9.7039 19.5433C8.60754 19.0892 7.67047 18.3201 7.01118 17.3334C6.35189 16.3467 6 15.1867 6 14C6 12.4087 6.63214 10.8826 7.75736 9.75736C8.88258 8.63214 10.4087 8 12 8Z" fill="#EF4444"/>
<path d="M14 2H10V4H14V2Z" fill="#EF4444"/>
<path d="M5.79012 3.79093L2.79199 6.78906L4.20621 8.20328L7.20434 5.20514L5.79012 3.79093Z" fill="#EF4444"/>
<path d="M13 10H11V15H13V10Z" fill="#EF4444"/>
</g>
<defs>
<clipPath id="clip0_19_2">
<rect width="24" height="24" fill="white"/>
</clipPath>
</defs>
</svg>
